<?xml version="1.0" standalone="no"?>
<!DOCTYPE svg PUBLIC "-//W3C//DTD SVG 20010904//EN"
 "http://www.w3.org/TR/2001/REC-SVG-20010904/DTD/svg10.dtd">
<svg version="1.0" xmlns="http://www.w3.org/2000/svg"
 width="500.000000pt" height="143.000000pt" viewBox="0 0 500.000000 143.000000"
 preserveAspectRatio="xMidYMid meet">

<g transform="translate(0.000000,143.000000) scale(0.100000,-0.100000)"
fill="#000000" stroke="none">
<path d="M847 1328 c-14 -23 -181 -315 -371 -648 l-346 -605 737 -3 c405 -1
738 0 740 2 2 2 -162 295 -365 651 l-370 647 -25 -44z"/>
<path d="M3035 954 c-14 -15 -15 -44 -10 -258 6 -271 24 -550 36 -583 10 -27
54 -31 84 -10 17 13 17 25 6 238 -6 123 -11 278 -12 344 0 170 -11 254 -34
271 -25 18 -50 18 -70 -2z"/>
<path d="M2551 937 c-17 -22 -39 -120 -71 -327 -36 -229 -35 -226 -60 -233
-25 -7 -28 -57 -4 -57 14 0 15 -10 9 -85 -8 -97 0 -115 47 -115 34 0 49 27 68
126 7 34 15 66 19 71 3 6 27 13 53 17 53 8 49 17 69 -134 6 -47 15 -91 21 -97
22 -27 98 -6 98 26 0 5 -9 91 -20 192 -49 456 -80 611 -122 623 -40 10 -95 7
-107 -7z m83 -416 c9 -57 15 -105 13 -107 -2 -2 -19 -5 -38 -6 l-34 -3 2 55
c3 75 24 183 33 173 4 -4 15 -55 24 -112z"/>
<path d="M1795 919 c-13 -21 -27 -236 -21 -328 6 -91 46 -322 67 -388 13 -42
78 -99 127 -113 95 -25 159 38 187 184 11 56 15 142 14 309 -1 329 -8 360 -72
343 l-27 -6 3 -313 c2 -273 0 -319 -15 -368 -24 -76 -42 -90 -73 -58 -49 49
-105 349 -105 566 0 80 -5 153 -10 164 -12 21 -64 27 -75 8z"/>
<path d="M3790 827 l-35 -12 -8 -140 c-7 -145 -1 -415 12 -463 7 -25 12 -27
57 -27 l49 0 3 97 3 98 39 20 c119 61 191 218 149 327 -14 38 -57 83 -96 99
-39 17 -125 17 -173 1z m133 -59 c15 -20 21 -48 25 -107 4 -67 1 -87 -17 -124
-20 -42 -57 -85 -65 -76 -2 2 -7 80 -10 172 l-7 168 27 -3 c15 -2 36 -15 47
-30z"/>
<path d="M4311 831 c-31 -20 12 -230 70 -341 19 -37 29 -70 29 -100 0 -67 19
-172 36 -198 16 -24 52 -29 85 -12 23 13 25 67 9 198 -9 70 -8 85 6 106 19 31
64 243 64 309 0 47 0 47 -34 47 -19 0 -37 -4 -40 -9 -3 -5 -11 -44 -16 -87
-14 -101 -31 -184 -41 -190 -9 -5 -30 57 -59 170 -11 44 -28 88 -37 98 -17 19
-49 23 -72 9z"/>
<path d="M3408 209 c-27 -15 -24 -83 4 -103 29 -20 72 -20 92 0 23 23 21 91
-3 104 -25 13 -71 12 -93 -1z"/>
</g>
</svg>
